<?xml version="1.0" encoding="utf-8"?>
<!-- Generator: Adobe Illustrator 27.5.0, SVG Export Plug-In . SVG Version: 6.00 Build 0)  -->
<svg version="1.1" xmlns="http://www.w3.org/2000/svg" xmlns:xlink="http://www.w3.org/1999/xlink" x="0px" y="0px"
	 viewBox="0 0 750 500" style="enable-background:new 0 0 750 500;" xml:space="preserve">
<g id="BACKGROUND">
	<rect style="fill:#001D48;" width="750" height="500"/>
</g>
<g id="OBJECTS">
	<g>
		<g>
			<g>
				<path style="fill:none;stroke:#FFFFFF;stroke-miterlimit:10;" d="M671.426,423.643c1.761-0.496,3.522-0.993,5.283-1.489"/>
				<path style="fill:none;stroke:#FFFFFF;stroke-miterlimit:10;" d="M672.014,425.494c2.437-0.836,4.924-1.525,7.444-2.061"/>
				<path style="fill:none;stroke:#FFFFFF;stroke-miterlimit:10;" d="M672.152,427.667c2.186-0.404,3.743-1.063,5.853-1.763"/>
				<path style="fill:none;stroke:#FFFFFF;stroke-miterlimit:10;" d="M672.562,429.488c1.448-0.166,1.846-0.603,3.202-1.135"/>
			</g>
			<g>
				<g>
					<g>
						<g>
							<path style="fill:#2FB988;" d="M664.976,462.299c1.628-3.44,3.256-6.88,4.884-10.32c-0.609-0.08-1.219-0.159-1.828-0.239
								c0.705,3.688,1.411,7.375,2.116,11.063c0.242,1.263,2.169,0.728,1.929-0.532c-0.705-3.688-1.411-7.375-2.116-11.063
								c-0.156-0.818-1.467-1.001-1.828-0.239c-1.628,3.44-3.256,6.88-4.884,10.32C662.702,462.446,664.425,463.462,664.976,462.299
								L664.976,462.299z"/>
						</g>
					</g>
					<g>
						<g>
							<path style="fill:#2FB988;" d="M665.146,458.926c1.424,0.319,2.851,0.294,4.256-0.109c1.235-0.354,0.71-2.284-0.532-1.928
								c-1.06,0.304-2.115,0.351-3.193,0.109C664.424,456.716,663.889,458.644,665.146,458.926L665.146,458.926z"/>
						</g>
					</g>
				</g>
				<g>
					
						<ellipse transform="matrix(0.9233 -0.3841 0.3841 0.9233 -123.2224 291.5838)" style="fill:none;stroke:#2FB988;stroke-width:2;stroke-miterlimit:10;" cx="668.446" cy="454.312" rx="33.333" ry="33.333"/>
				</g>
			</g>
			<g>
				<g>
					<g>
						<path style="fill:#DDE560;" d="M650.73,400.101c-2.188-0.921-4.598,0.777-5.133,2.949c-0.646,2.626,1.395,4.986,3.535,6.165
							c1.128,0.622,2.138-1.105,1.009-1.727c-1.253-0.69-2.572-1.82-2.64-3.365c-0.063-1.431,1.31-2.678,2.697-2.094
							C651.383,402.529,651.901,400.594,650.73,400.101L650.73,400.101z"/>
					</g>
				</g>
				<g>
					
						<ellipse transform="matrix(0.5947 -0.804 0.804 0.5947 -62.1599 688.1998)" style="fill:none;stroke:#DDE560;stroke-width:2;stroke-miterlimit:10;" cx="651.463" cy="405.749" rx="33.333" ry="33.333"/>
				</g>
			</g>
			<g>
				<g>
					<g>
						
							<ellipse transform="matrix(0.1906 -0.9817 0.9817 0.1906 158.5853 1029.9154)" style="fill:none;stroke:#64D357;stroke-width:2;stroke-miterlimit:10;" cx="703.866" cy="418.787" rx="33.333" ry="33.333"/>
					</g>
				</g>
				<g>
					<g>
						<g>
							<path style="fill:#64D357;" d="M702.893,413.211c0.03,2.137,0.06,4.274,0.091,6.411c0.018,1.286,2.018,1.289,2,0
								c-0.03-2.137-0.06-4.274-0.091-6.411C704.875,411.925,702.875,411.921,702.893,413.211L702.893,413.211z"/>
						</g>
					</g>
					<g>
						<g>
							<path style="fill:#64D357;" d="M703.997,413.906c0.314-0.342,0.695-0.547,1.143-0.614c0.595-0.345,0.929-0.074,1.002,0.811
								c-1.063-0.225-1.814,1.262-0.771,1.828c1.016,0.551,3.09,1.921,1.443,3.094c-0.994,0.708-2.569,0.028-3.581-0.324
								c-1.218-0.424-1.742,1.507-0.532,1.929c2.114,0.736,5.109,1.24,6.403-1.166c1.214-2.257-0.901-4.27-2.724-5.259
								c-0.257,0.609-0.514,1.218-0.771,1.828c1.882,0.398,3.57-1.468,2.659-3.299c-1.185-2.381-4.068-1.584-5.687-0.241
								C701.591,413.315,703.013,414.723,703.997,413.906L703.997,413.906z"/>
						</g>
					</g>
				</g>
			</g>
		</g>
		<g>
			<g>
				<path style="fill:none;stroke:#FFFFFF;stroke-width:2.496;stroke-miterlimit:10;" d="M86.646,447.428
					c1.302-0.367,2.604-0.734,3.906-1.101"/>
				<path style="fill:none;stroke:#FFFFFF;stroke-width:2.496;stroke-miterlimit:10;" d="M87.081,448.797
					c1.802-0.618,3.641-1.128,5.504-1.524"/>
				<path style="fill:none;stroke:#FFFFFF;stroke-width:2.496;stroke-miterlimit:10;" d="M87.182,450.404
					c1.616-0.299,2.768-0.786,4.328-1.303"/>
				<path style="fill:none;stroke:#FFFFFF;stroke-width:2.496;stroke-miterlimit:10;" d="M87.485,451.75
					c1.071-0.123,1.365-0.446,2.368-0.84"/>
			</g>
			<g>
				<g>
					<path style="fill:none;stroke:#2FB988;stroke-width:2.496;stroke-miterlimit:10;" d="M81.238,475.636
						c1.204-2.544,2.407-5.087,3.611-7.63c0.522,2.727,1.043,5.453,1.565,8.18"/>
					<path style="fill:none;stroke:#2FB988;stroke-width:2.496;stroke-miterlimit:10;" d="M82.199,472.803
						c0.903,0.221,1.865,0.193,2.754-0.081"/>
				</g>
				<g>
					
						<ellipse transform="matrix(0.1193 -0.9929 0.9929 0.1193 -392.377 497.8837)" style="fill:none;stroke:#2FB988;stroke-width:2.496;stroke-miterlimit:10;" cx="84.443" cy="470.104" rx="24.646" ry="24.646"/>
				</g>
			</g>
			<g>
				<path style="fill:none;stroke:#DDE560;stroke-width:2.496;stroke-miterlimit:10;" d="M71.147,430.734
					c-1.267-0.661-2.901,0.631-2.942,2.06c-0.041,1.429,1.058,2.677,2.33,3.328"/>
				<g>
					
						<ellipse transform="matrix(0.7412 -0.6712 0.6712 0.7412 -272.8465 160.6015)" style="fill:none;stroke:#DDE560;stroke-width:2.496;stroke-miterlimit:10;" cx="71.886" cy="434.197" rx="24.646" ry="24.646"/>
				</g>
			</g>
			<g>
				<g>
					<g>
						
							<ellipse transform="matrix(0.7777 -0.6287 0.6287 0.7777 -254.4355 168.2344)" style="fill:none;stroke:#64D357;stroke-width:2.496;stroke-miterlimit:10;" cx="110.632" cy="443.837" rx="24.646" ry="24.646"/>
					</g>
				</g>
				<g>
					<path style="fill:none;stroke:#64D357;stroke-width:2.496;stroke-miterlimit:10;" d="M110.652,439.715
						c0.022,1.58,0.045,3.16,0.067,4.74"/>
					<path style="fill:none;stroke:#64D357;stroke-width:2.496;stroke-miterlimit:10;" d="M110.206,439.706
						c0.478-0.439,1.085-0.784,1.733-0.775c0.648,0.009,1.314,0.465,1.398,1.108c0.083,0.643-0.621,1.3-1.218,1.048
						c1.024,0.516,2.134,1.458,1.863,2.572c-0.183,0.753-0.98,1.227-1.753,1.287c-0.773,0.06-1.53-0.202-2.261-0.46"/>
				</g>
			</g>
		</g>
		<g>
			<path style="fill:#FFFFFF;" d="M677.735,318.487c-13.881-4.568-24.274-0.828-30.97,9.007c0,0-10.738,17.061,5.882,28.695
				c8.836,6.185,18.84,4.143,28.248,14.919c0.904,1.035,2.092,1.804,3.431,2.113c3.547,0.817,8.001,0.322,12.188-13.734
				C702.496,339.407,691.616,323.055,677.735,318.487z M687.137,369.877c-1.741,0.539-3.899-1.437-4.82-4.413
				c-0.921-2.976-0.257-5.826,1.484-6.365c1.741-0.539,3.899,1.437,4.82,4.413C689.542,366.489,688.878,369.338,687.137,369.877z"/>
			<g>
				<path style="fill:#64D357;" d="M648.203,334.691c-1.276,0.256-1.884,1.858-1.557,3.118c0.327,1.26,1.29,2.238,2.201,3.168
					c0.911,0.929,1.847,1.948,2.095,3.225c0.073,0.376,0.084,0.767,0.222,1.124c0.419,1.085,1.915,1.42,2.969,0.927
					c1.054-0.493,1.719-1.558,2.175-2.628c0.413-0.969,0.707-2.014,0.628-3.064c-0.079-1.05-0.577-2.106-1.468-2.666
					c-0.526-0.331-1.189-0.502-1.544-1.012c-0.414-0.595-0.246-1.412-0.463-2.103c-0.336-1.07-1.582-1.65-2.699-1.546
					c-1.117,0.104-2.112,0.739-2.985,1.442"/>
				<g>
					<path style="fill:#64D357;" d="M647.937,333.727c-4.324,1.729-1.613,5.921,0.475,8.242c1.039,1.156,1.26,2.265,1.788,3.623
						c0.227,0.584,0.64,1.105,1.181,1.43c1.287,0.772,2.919,0.479,4.046-0.422c3.013-2.409,3.283-7.045,0.545-9.569
						c-1.098-1.013-1.114-1.494-1.648-2.757c-0.334-0.791-0.946-1.362-1.722-1.714c-1.896-0.861-3.81,0.113-5.331,1.251
						c-1.019,0.762-0.023,2.499,1.009,1.727c1.633-1.222,2.811-1.581,4.422,0.953c0.253,0.398,0.236,0.743,0.513,1.097
						c0.525,0.67,1.323,1.019,1.905,1.665c1.131,1.256,0.945,3.09,0.023,4.503c-0.478,1.197-1.528,1.446-3.151,0.748
						c-0.029-0.19-0.058-0.379-0.086-0.569c-0.468-0.581-0.647-1.638-1.136-2.295c-0.83-1.115-5.277-4.796-2.302-5.986
						C649.65,335.184,649.134,333.249,647.937,333.727L647.937,333.727z"/>
				</g>
			</g>
			<g>
				<path style="fill:#2FB988;" d="M661.856,348.516c-0.921-0.831-2.498-0.636-3.35,0.266c-0.852,0.902-1.013,2.316-0.6,3.486
					c0.241,0.682,0.749,1.359,1.468,1.438c0.427,0.047,0.845-0.127,1.272-0.174c0.856-0.095,1.706,0.335,2.306,0.954
					c0.6,0.618,0.987,1.408,1.333,2.197c0.117,0.267,0.241,0.548,0.476,0.72c0.229,0.168,0.527,0.204,0.81,0.234
					c0.883,0.095,1.795,0.187,2.643-0.077c1.897-0.59,2.865-2.842,2.649-4.817c-0.215-1.975-1.321-3.727-2.421-5.382
					c-0.627-0.943-1.61-2.011-2.681-1.641c-1.242,0.43-1.375,2.469-2.656,2.762c-0.895,0.205-1.8-0.623-2.688-0.384"/>
				<g>
					<path style="fill:#2FB988;" d="M662.361,347.653c-3.645-2.374-7.238,2.457-4.991,5.779c0.433,0.639,1.087,1.148,1.871,1.257
						c0.351,0.049,0.694-0.091,1.035-0.07c2.278,0.142,2.198,1.069,3.146,2.569c1.037,1.64,3.216,1.923,5.059,1.337
						c5.011-1.592,3.351-7.758,1.295-10.952c-0.9-1.398-2.195-3.318-4.146-2.834c-0.68,0.168-1.152,0.618-1.576,1.161
						c-0.723,0.929-0.379,1.284-2.028,1.414c-0.455,0.036-1.113-0.224-1.607-0.216c-1.286,0.022-1.29,2.023,0,2
						c1.812-0.032,2.929,0.959,4.342-0.611c0.179-0.199,0.53-1.019,0.701-1.087c0.966-0.384,2.045,0.599,2.586,1.181
						c1.034,1.113,1.886,3.303,1.844,4.827c-0.058,2.094-1.945,4.057-4.088,3.039c-1.093-0.52-1.273-1.807-2.146-2.67
						c-0.573-0.566-1.311-1.031-2.11-1.189c-0.265-0.052-0.679,0.053-0.903-0.058c-0.581,0.158-0.937-0.204-1.07-1.084
						c-1.501-1.332-0.91-2.022,1.775-2.068C662.433,350.084,663.436,348.353,662.361,347.653L662.361,347.653z"/>
				</g>
			</g>
			<g>
				<path style="fill:#DDE560;" d="M662.433,322.781c-1.733-0.155-3.093,1.533-3.609,3.194c-0.17,0.546-0.288,1.13-0.161,1.687
					c0.421,1.846,3.122,2.33,3.727,4.124c0.325,0.964-0.028,2.153,0.604,2.951c0.462,0.582,1.324,0.721,2.037,0.513
					c0.714-0.208,1.307-0.698,1.852-1.204c0.873-0.809,1.706-1.736,2.029-2.882c0.324-1.145-0.005-2.55-1.031-3.153
					c-0.579-0.341-1.41-0.506-1.559-1.161c-0.133-0.582,0.401-1.084,0.607-1.645c0.373-1.016-0.441-2.156-1.454-2.537
					c-1.013-0.38-2.139-0.211-3.207-0.036"/>
				<g>
					<path style="fill:#DDE560;" d="M662.433,321.781c-3.639,0.142-6.466,5.164-3.601,7.954c0.674,0.656,1.744,1.041,2.271,1.818
						c0.707,1.042,0.283,2.367,0.89,3.429c0.81,1.415,2.481,1.609,3.881,0.985c3.02-1.346,6.153-6.389,2.513-8.819
						c-1.139-0.76-0.815-0.388-0.492-1.676c0.23-0.917,0.063-1.778-0.498-2.543c-1.285-1.75-3.495-1.545-5.394-1.26
						c-1.268,0.19-0.729,2.118,0.532,1.929c0.453-0.051,0.906-0.103,1.359-0.154c0.632,0.601,1.264,1.203,1.896,1.804
						c0.053,0.268-0.424,0.59-0.395,0.91c0.063,0.676-0.122,0.984,0.291,1.608c0.42,0.634,1.249,0.802,1.74,1.381
						c1.241,1.461-0.022,3.081-1.248,4.193c-0.833,0.755-1.916,0.864-2.616-0.327c-0.134-0.228,0.02-0.631-0.08-0.891
						c-0.257-0.668-0.334-1.183-0.794-1.763c-0.497-0.627-1.157-0.95-1.725-1.478c-1.601-1.488-1.411-4.987,1.471-5.099
						C663.716,323.731,663.723,321.73,662.433,321.781L662.433,321.781z"/>
				</g>
			</g>
		</g>
		<g>
			<path style="fill:#DDE560;" d="M742.207,387.486c2.229-3.612-15.125-12.462-24.74-17.014l-1.987,4.091
				C724.331,380.53,740.261,390.64,742.207,387.486z"/>
			<path style="fill:#64D357;" d="M709.602,370.502l1.822-2.805c-0.035-0.016-0.072-0.032-0.072-0.032s-2.629-7.008-9.446-3.576
				C702.891,372.333,709.602,370.502,709.602,370.502z"/>
			<path style="fill:#FFFFFF;" d="M715.48,374.563l1.987-4.091c-3.289-1.557-5.662-2.608-6.043-2.775l-1.822,2.805
				C709.602,370.502,711.992,372.211,715.48,374.563z"/>
		</g>
		<g>
			<path style="fill:#DDE560;" d="M475.876,483.803c0.003-4.244-19.415-2.675-29.988-1.507l0.454,4.525
				C457.009,487.259,475.874,487.509,475.876,483.803z"/>
			<path style="fill:#64D357;" d="M439.208,486.448l0.08-3.344c-0.038,0.005-0.078,0.011-0.078,0.011s-5.914-4.587-9.918,1.911
				C434.455,491.528,439.208,486.448,439.208,486.448z"/>
			<path style="fill:#FFFFFF;" d="M446.343,486.822l-0.454-4.525c-3.617,0.4-6.189,0.75-6.601,0.807l-0.08,3.344
				C439.208,486.448,442.14,486.649,446.343,486.822z"/>
		</g>
		<g>
			<g>
				
					<path style="fill:#DDE560;stroke:#DDE560;stroke-width:0.8974;stroke-linecap:round;stroke-linejoin:round;stroke-miterlimit:10;" d="
					M712.68,338.59c-0.352,1.188-2.371,1.637-4.51,1.003c-2.138-0.634-3.586-2.111-3.234-3.299c0.352-1.188,2.371-1.637,4.51-1.003
					C711.584,335.925,713.032,337.402,712.68,338.59z"/>
				
					<line style="fill:none;stroke:#DDE560;stroke-linecap:round;stroke-linejoin:round;stroke-miterlimit:10;" x1="712.722" y1="338.408" x2="717.732" y2="321.51"/>
			</g>
			<g>
				
					<path style="fill:#64D357;stroke:#64D357;stroke-width:0.8974;stroke-linecap:round;stroke-linejoin:round;stroke-miterlimit:10;" d="
					M739.18,351.09c-0.352,1.188-2.371,1.637-4.51,1.003c-2.138-0.634-3.586-2.111-3.234-3.299c0.352-1.188,2.371-1.637,4.51-1.003
					C738.084,348.425,739.532,349.902,739.18,351.09z"/>
				
					<line style="fill:none;stroke:#64D357;stroke-linecap:round;stroke-linejoin:round;stroke-miterlimit:10;" x1="739.222" y1="350.908" x2="744.232" y2="334.01"/>
			</g>
			<g>
				
					<path style="fill:none;stroke:#2FB988;stroke-width:0.8974;stroke-linecap:round;stroke-linejoin:round;stroke-miterlimit:10;" d="
					M723.68,349.09c-0.352,1.188-2.371,1.637-4.51,1.003c-2.138-0.634-3.586-2.111-3.234-3.299c0.352-1.188,2.371-1.637,4.51-1.003
					C722.584,346.425,724.032,347.902,723.68,349.09z"/>
				
					<line style="fill:none;stroke:#2FB988;stroke-linecap:round;stroke-linejoin:round;stroke-miterlimit:10;" x1="723.722" y1="348.908" x2="728.732" y2="332.01"/>
			</g>
		</g>
		<g>
			<g>
				
					<path style="fill:#DDE560;stroke:#DDE560;stroke-width:1.3076;stroke-linecap:round;stroke-linejoin:round;stroke-miterlimit:10;" d="
					M677.044,44.562c-0.513,1.731-3.455,2.386-6.571,1.462c-3.116-0.924-5.226-3.076-4.713-4.807
					c0.513-1.731,3.455-2.386,6.571-1.462C675.448,40.679,677.557,42.831,677.044,44.562z"/>
				
					<line style="fill:none;stroke:#DDE560;stroke-width:1.4571;stroke-linecap:round;stroke-linejoin:round;stroke-miterlimit:10;" x1="677.107" y1="44.297" x2="684.406" y2="19.674"/>
			</g>
			<g>
				
					<path style="fill:#64D357;stroke:#64D357;stroke-width:1.3076;stroke-linecap:round;stroke-linejoin:round;stroke-miterlimit:10;" d="
					M715.658,62.776c-0.513,1.731-3.455,2.386-6.571,1.462c-3.116-0.924-5.226-3.076-4.713-4.807
					c0.513-1.731,3.455-2.385,6.571-1.462C714.061,58.893,716.171,61.045,715.658,62.776z"/>
				
					<line style="fill:none;stroke:#64D357;stroke-width:1.4571;stroke-linecap:round;stroke-linejoin:round;stroke-miterlimit:10;" x1="715.72" y1="62.511" x2="723.019" y2="37.888"/>
			</g>
			<g>
				
					<path style="fill:none;stroke:#2FB988;stroke-width:1.3076;stroke-linecap:round;stroke-linejoin:round;stroke-miterlimit:10;" d="
					M693.073,59.862c-0.513,1.731-3.455,2.386-6.571,1.462c-3.116-0.924-5.226-3.076-4.713-4.807
					c0.513-1.731,3.455-2.385,6.571-1.462S693.586,58.131,693.073,59.862z"/>
				
					<line style="fill:none;stroke:#2FB988;stroke-width:1.4571;stroke-linecap:round;stroke-linejoin:round;stroke-miterlimit:10;" x1="693.135" y1="59.597" x2="700.434" y2="34.974"/>
			</g>
		</g>
		<g>
			<g>
				<g>
					<path style="fill:#FFFFFF;" d="M722.796,455.468c-2.208,11.583-6.01,22.822-9.734,33.988c-0.408,1.224,1.523,1.749,1.929,0.532
						c3.723-11.166,7.525-22.405,9.734-33.988C724.964,454.742,723.037,454.203,722.796,455.468L722.796,455.468z"/>
				</g>
			</g>
			<g>
				<g>
					<path style="fill:#FFFFFF;" d="M738.207,454.74c-3.203,12.398-6.157,24.855-8.864,37.371c-0.271,1.255,1.656,1.791,1.928,0.532
						c2.706-12.516,5.661-24.973,8.864-37.371C740.458,454.025,738.53,453.493,738.207,454.74L738.207,454.74z"/>
				</g>
			</g>
			<g>
				<g>
					<path style="fill:#FFFFFF;" d="M710.713,466.516c10.983,1.098,21.962,2.18,32.979,2.883c1.285,0.082,1.28-1.918,0-2
						c-11.017-0.703-21.996-1.785-32.979-2.883C709.434,464.388,709.443,466.389,710.713,466.516L710.713,466.516z"/>
				</g>
			</g>
			<g>
				<g>
					<path style="fill:#FFFFFF;" d="M707.027,478.388c11.631,1.461,22.639,4.607,33.734,8.298c1.224,0.407,1.749-1.524,0.532-1.929
						c-11.276-3.751-22.449-6.885-34.266-8.369C705.753,476.228,705.764,478.23,707.027,478.388L707.027,478.388z"/>
				</g>
			</g>
			<g>
				<g>
					<path style="fill:#DDE560;" d="M731.108,454.296c-4.514-2.247-6.253,9.905,0.16,8.888c2.765-0.438,4.404-3.559,4.084-6.159
						c-0.316-2.563-2.977-4.504-5.392-3.053c-1.102,0.662-0.098,2.392,1.009,1.727c1.478-0.888,2.466,0.883,2.429,2.156
						c-0.037,1.287-0.802,2.789-2.071,3.245c-1.344,0.483-2.111-0.688-2.256-1.867c-0.045-0.366,0.157-3.644,1.028-3.21
						C731.247,456.595,732.262,454.87,731.108,454.296L731.108,454.296z"/>
				</g>
			</g>
			<g>
				<g>
					<path style="fill:#DDE560;" d="M707.896,481.468c-2.222-0.537-4.631,0.756-5.221,3.033c-0.627,2.421,1.295,4.92,3.674,5.314
						c2.44,0.404,4.833-1.471,5.3-3.844c0.507-2.577-1.184-4.851-3.481-5.798c-1.189-0.49-1.707,1.444-0.532,1.929
						c2.634,1.086,2.895,5.513-0.437,5.751c-3.496,0.251-3.249-5.283,0.165-4.457C708.615,483.699,709.149,481.771,707.896,481.468
						L707.896,481.468z"/>
				</g>
			</g>
			<g>
				<g>
					<path style="fill:#64D357;" d="M724.522,472.252c1.496,1.147,2.869,2.445,4.131,3.844c0.864,0.958,2.275-0.46,1.414-1.414
						c-1.382-1.532-2.9-2.902-4.536-4.156C724.511,469.742,723.513,471.478,724.522,472.252L724.522,472.252z"/>
				</g>
			</g>
			<g>
				<g>
					<path style="fill:#64D357;" d="M725.564,476.944c2.109-1.903,4.219-3.806,6.328-5.709c0.958-0.864-0.46-2.275-1.414-1.414
						c-2.109,1.903-4.219,3.806-6.328,5.709C723.192,476.393,724.61,477.804,725.564,476.944L725.564,476.944z"/>
				</g>
			</g>
		</g>
		<g>
			<g>
				<defs>
					
						<ellipse id="XMLID_1_" transform="matrix(0.5067 -0.8621 0.8621 0.5067 93.5022 744.1999)" cx="697.023" cy="290.399" rx="23.759" ry="23.759"/>
				</defs>
				<use xlink:href="#XMLID_1_"  style="overflow:visible;fill:#2FB988;"/>
				<clipPath id="XMLID_00000050645100797990511660000007169091637869651888_">
					<use xlink:href="#XMLID_1_"  style="overflow:visible;"/>
				</clipPath>
				<g style="clip-path:url(#XMLID_00000050645100797990511660000007169091637869651888_);">
					<path style="fill:#64D357;" d="M707.596,265.913c-3.072,0.231-5.789,2.073-8.068,4.146c-2.279,2.074-4.307,4.454-6.866,6.169
						c-0.863,0.578-1.906,1.318-1.78,2.349c0.124,1.009,1.297,1.495,2.3,1.66c2.215,0.365,4.523,0.152,6.635-0.611
						c1.874-0.677,3.734-1.799,5.705-1.512c1.467,0.214,2.734,1.192,4.198,1.432c3.267,0.536,5.976-2.786,6.667-6.024
						c0.112-0.527,0.192-1.086,0.022-1.598c-0.247-0.744-0.952-1.222-1.614-1.641c-2.544-1.608-5.118-3.171-7.719-4.687"/>
				</g>
				<g style="clip-path:url(#XMLID_00000050645100797990511660000007169091637869651888_);">
					<path style="fill:#64D357;" d="M681.158,313.372c2.231-2.144,4.545-4.203,6.934-6.17c0.63-0.519,1.411-1.064,2.195-0.835
						c0.919,0.268,1.245,1.42,2.024,1.976c0.984,0.702,2.377,0.262,3.374-0.422s1.885-1.604,3.055-1.909
						c2.528-0.659,4.909,2.161,4.717,4.766c-0.193,2.605-2.104,4.753-4.141,6.387c-2.038,1.634-4.343,3.018-5.898,5.117
						c-0.454,0.613-0.949,1.349-1.71,1.402c-0.416,0.029-0.812-0.162-1.179-0.36c-4.436-2.388-7.96-6.423-9.728-11.141"/>
				</g>
			</g>
			<path style="fill:#DDE560;" d="M718.272,280.103c12.129-2.37,20.44-3.038,20.883-1.381c0.684,2.557-17.632,9.681-40.911,15.913
				c-23.279,6.232-42.705,9.211-43.39,6.654c-0.44-1.644,6.978-5.177,18.521-9.147l0.157-3.871
				c-14.968,5.527-24.704,11.232-23.811,14.568c1.268,4.737,23.486,2.905,49.624-4.092c26.139-6.997,46.3-16.51,45.032-21.247
				c-0.893-3.337-12.179-3.414-27.908-0.724L718.272,280.103z"/>
		</g>
		<g>
			<g>
				<defs>
					
						<ellipse id="XMLID_7_" transform="matrix(0.5084 -0.8611 0.8611 0.5084 -190.9348 514.3214)" cx="355.023" cy="424.399" rx="23.759" ry="23.759"/>
				</defs>
				<use xlink:href="#XMLID_7_"  style="overflow:visible;fill:#2FB988;"/>
				<clipPath id="XMLID_00000096753318576264703340000010191072971465518521_">
					<use xlink:href="#XMLID_7_"  style="overflow:visible;"/>
				</clipPath>
				<g style="clip-path:url(#XMLID_00000096753318576264703340000010191072971465518521_);">
					<path style="fill:#64D357;" d="M365.596,399.913c-3.072,0.231-5.789,2.073-8.068,4.146c-2.279,2.074-4.307,4.454-6.866,6.169
						c-0.863,0.578-1.906,1.318-1.78,2.349c0.124,1.009,1.297,1.495,2.3,1.66c2.216,0.365,4.523,0.152,6.635-0.611
						c1.874-0.677,3.734-1.799,5.705-1.512c1.467,0.214,2.734,1.192,4.198,1.432c3.267,0.536,5.976-2.786,6.667-6.024
						c0.113-0.527,0.191-1.086,0.022-1.598c-0.246-0.744-0.952-1.222-1.614-1.641c-2.544-1.608-5.118-3.171-7.719-4.687"/>
				</g>
				<g style="clip-path:url(#XMLID_00000096753318576264703340000010191072971465518521_);">
					<path style="fill:#64D357;" d="M339.158,447.372c2.231-2.144,4.545-4.203,6.934-6.17c0.63-0.519,1.411-1.064,2.195-0.835
						c0.919,0.268,1.245,1.42,2.024,1.976c0.984,0.702,2.377,0.262,3.374-0.422c0.997-0.683,1.885-1.604,3.055-1.909
						c2.528-0.659,4.909,2.161,4.717,4.766c-0.193,2.605-2.104,4.753-4.142,6.387c-2.038,1.634-4.343,3.018-5.898,5.117
						c-0.454,0.613-0.949,1.349-1.71,1.402c-0.416,0.029-0.812-0.162-1.179-0.36c-4.436-2.388-7.96-6.423-9.728-11.141"/>
				</g>
			</g>
			<path style="fill:#DDE560;" d="M376.272,414.103c12.129-2.37,20.44-3.038,20.883-1.381c0.684,2.557-17.632,9.681-40.911,15.913
				c-23.279,6.232-42.705,9.211-43.39,6.654c-0.44-1.644,6.978-5.177,18.521-9.147l0.157-3.871
				c-14.968,5.527-24.704,11.232-23.811,14.568c1.268,4.737,23.486,2.905,49.624-4.092c26.139-6.997,46.3-16.51,45.032-21.247
				c-0.893-3.337-12.179-3.414-27.908-0.724L376.272,414.103z"/>
		</g>
		<g>
			<path style="fill:#DDE560;" d="M589.684,486.863c1.593,6.13,4.723,4.757,4.723,4.757l35.077-8.931
				c0.898-0.233,1.436-1.15,1.203-2.048l-11.988-47.125l-0.974-0.436c0,0-1.648,0.776-3.922-4.66l12.179,46.863
				c0.289,1.111-0.378,2.245-1.488,2.533l-33.72,8.763L589.684,486.863z"/>
			<path style="fill:#2FB988;" d="M617.724,433.081l12.227,47.049c0.233,0.898-0.305,1.814-1.203,2.048l-34.78,9.039
				c-0.205,0.053-0.422,0.03-0.605-0.078c-0.6-0.356-1.908-1.43-2.513-4.246c-0.037-0.173,0.071-0.351,0.242-0.396l33.358-8.669
				c1.11-0.289,1.777-1.423,1.488-2.533l-12.293-47.301c-0.1-0.383-0.491-0.613-0.874-0.514l-35.534,9.235
				c-0.66,0.172-1.057,0.846-0.885,1.506l12.685,48.81l0.006-0.002c1.557,6.26,4.972,5.596,5.542,5.448l35.798-9.303
				c0.898-0.233,1.436-1.15,1.203-2.048l-12.573-48.38L617.724,433.081z"/>
			<g>
				<path style="fill:none;stroke:#FFFFFF;stroke-linecap:round;stroke-linejoin:round;stroke-miterlimit:10;" d="M589.751,464.211
					c0.107-3.492,0.215-6.984,0.322-10.476c1.617,2.681,3.233,5.361,4.85,8.042"/>
				<path style="fill:none;stroke:#FFFFFF;stroke-linecap:round;stroke-linejoin:round;stroke-miterlimit:10;" d="M590.321,460.222
					c1.147-0.595,2.351-1.079,3.59-1.445"/>
				<path style="fill:none;stroke:#FFFFFF;stroke-linecap:round;stroke-linejoin:round;stroke-miterlimit:10;" d="M597.641,452.152
					c1.044,2.536,2.089,5.071,3.133,7.607"/>
				<path style="fill:none;stroke:#FFFFFF;stroke-linecap:round;stroke-linejoin:round;stroke-miterlimit:10;" d="M597.441,452.405
					c0.498-0.515,1.052-1.013,1.733-1.235s1.52-0.101,1.966,0.46c0.389,0.489,0.394,1.202,0.16,1.781
					c-0.234,0.58-0.67,1.051-1.118,1.487c1.003-0.379,2.164-0.522,3.125-0.048c0.961,0.474,1.58,1.715,1.102,2.674
					c-0.159,0.318-0.416,0.577-0.692,0.802c-0.968,0.791-2.217,1.23-3.466,1.217"/>
				<path style="fill:none;stroke:#FFFFFF;stroke-linecap:round;stroke-linejoin:round;stroke-miterlimit:10;" d="M609.572,448.184
					c-0.295-0.252-0.717,0.103-0.925,0.43c-0.613,0.965-1.125,2.079-0.98,3.214c0.089,0.691,0.414,1.326,0.734,1.944
					c0.607,1.172,1.375,2.472,2.669,2.737c1.018,0.208,2.054-0.32,2.822-1.019"/>
			</g>
		</g>
		<g>
			<path style="fill:#FFFFFF;" d="M621.904,261.4c-2.279,5.909,1.065,6.618,1.065,6.618l33.708,13.19
				c0.865,0.334,1.837-0.097,2.171-0.963l17.727-45.279l-0.418-0.879c0,0-1.911-0.373-0.59-6.116l-17.42,45.177
				c-0.413,1.07-1.615,1.604-2.686,1.191l-32.507-12.535L621.904,261.4z"/>
			<path style="fill:#64D357;" d="M676.116,234.09l-17.49,45.357c-0.334,0.865-1.306,1.296-2.171,0.963l-33.529-12.929
				c-0.198-0.076-0.361-0.222-0.446-0.416c-0.28-0.639-0.717-2.274,0.433-4.915c0.07-0.162,0.263-0.244,0.427-0.18l32.158,12.4
				c1.071,0.413,2.273-0.12,2.686-1.191l17.583-45.6c0.142-0.369-0.042-0.784-0.411-0.927l-34.256-13.209
				c-0.637-0.245-1.352,0.072-1.597,0.708l-18.144,47.054l0.006,0.002c-2.384,5.994,0.778,7.445,1.328,7.657l34.511,13.307
				c0.865,0.334,1.837-0.097,2.171-0.963l17.984-46.64L676.116,234.09z"/>
			<path style="fill:none;stroke:#FFFFFF;stroke-linecap:round;stroke-linejoin:round;stroke-miterlimit:10;" d="M649.584,236.799
				c-0.925,3.915-1.85,7.829-2.775,11.744l-10.449,4.012l19,8.5l-5.25-11.25l3.25-12.5c0,0,9.25-0.25,1-2.75
				S643.558,232.293,649.584,236.799z"/>
		</g>
		<g>
			<g>
				
					<line style="fill:none;stroke:#2FB988;stroke-linecap:round;stroke-linejoin:round;stroke-miterlimit:10;" x1="621.902" y1="351.414" x2="619.344" y2="342.59"/>
				<path style="fill:#2FB988;" d="M625.796,344.379c0.38,0.175,0.516,0.642,0.288,0.993c-0.485,0.748-1.383,1.912-2.429,2.216
					c-1.575,0.456-2.587-0.168-2.889-1.212c-0.303-1.044,0.218-2.113,1.793-2.57C623.605,343.502,624.987,344.006,625.796,344.379z"
					/>
			</g>
			<path style="fill:#64D357;" d="M633.367,354.598c1.576,5.437-1.5,11.107-6.87,12.664c-5.371,1.557-11.003-1.588-12.579-7.025
				c-1.576-5.437,3.106-11.508,7.984-8.822C624.246,347.156,631.791,349.161,633.367,354.598z"/>
		</g>
		<g>
			<g>
				
					<line style="fill:none;stroke:#2FB988;stroke-linecap:round;stroke-linejoin:round;stroke-miterlimit:10;" x1="703.235" y1="83.414" x2="700.677" y2="74.59"/>
				<path style="fill:#2FB988;" d="M707.13,76.379c0.38,0.175,0.516,0.642,0.288,0.993c-0.485,0.748-1.383,1.912-2.429,2.216
					c-1.575,0.456-2.586-0.168-2.889-1.212c-0.303-1.044,0.218-2.113,1.793-2.57C704.939,75.502,706.32,76.006,707.13,76.379z"/>
			</g>
			<path style="fill:#64D357;" d="M714.7,86.598c1.576,5.437-1.5,11.107-6.87,12.664c-5.371,1.557-11.002-1.588-12.579-7.025
				c-1.576-5.437,3.106-11.507,7.984-8.822C705.58,79.156,713.124,81.161,714.7,86.598z"/>
		</g>
		<g>
			<g>
				
					<line style="fill:none;stroke:#2FB988;stroke-linecap:round;stroke-linejoin:round;stroke-miterlimit:10;" x1="619.012" y1="215.859" x2="625.943" y2="209.828"/>
				<path style="fill:#2FB988;" d="M627.033,216.435c0.001,0.419-0.365,0.738-0.78,0.679c-0.883-0.126-2.316-0.451-3.031-1.272
					c-1.076-1.237-0.935-2.417-0.115-3.131c0.82-0.714,2.009-0.69,3.085,0.547C626.907,214.078,627.03,215.543,627.033,216.435z"/>
			</g>
			<path style="fill:#64D357;" d="M620.943,227.6c-4.271,3.716-10.708,3.309-14.379-0.91c-3.671-4.218-3.185-10.651,1.086-14.367
				c4.27-3.716,11.747-2.02,11.361,3.535C623.862,216.196,625.214,223.884,620.943,227.6z"/>
		</g>
		<g>
			<g>
				
					<line style="fill:none;stroke:#2FB988;stroke-linecap:round;stroke-linejoin:round;stroke-miterlimit:10;" x1="559.047" y1="476.906" x2="562.974" y2="468.599"/>
				<path style="fill:#2FB988;" d="M566.625,474.212c0.169,0.383-0.039,0.822-0.442,0.935c-0.859,0.239-2.302,0.518-3.287,0.052
					c-1.482-0.701-1.827-1.839-1.362-2.822c0.465-0.983,1.563-1.439,3.045-0.738C565.563,472.105,566.265,473.397,566.625,474.212z"
					/>
			</g>
			<path style="fill:#DDE560;" d="M565.53,486.883c-2.419,5.118-8.479,7.329-13.534,4.94c-5.056-2.39-7.193-8.476-4.773-13.594
				s9.948-6.566,11.825-1.323C563.624,475.267,567.949,481.765,565.53,486.883z"/>
		</g>
		<g>
			<g>
				
					<line style="fill:none;stroke:#2FB988;stroke-linecap:round;stroke-linejoin:round;stroke-miterlimit:10;" x1="257.182" y1="424.761" x2="261.109" y2="416.455"/>
				<path style="fill:#2FB988;" d="M264.759,422.068c0.169,0.383-0.038,0.822-0.442,0.935c-0.859,0.239-2.302,0.517-3.287,0.052
					c-1.482-0.701-1.827-1.839-1.362-2.822c0.465-0.983,1.563-1.439,3.045-0.738C263.698,419.96,264.399,421.252,264.759,422.068z"
					/>
			</g>
			<path style="fill:#DDE560;" d="M263.665,434.739c-2.419,5.118-8.479,7.329-13.534,4.94c-5.056-2.39-7.193-8.476-4.773-13.594
				c2.419-5.118,9.948-6.566,11.825-1.323C261.759,423.122,266.084,429.621,263.665,434.739z"/>
		</g>
		<path style="fill:none;stroke:#64D357;stroke-width:2;stroke-linecap:round;stroke-linejoin:round;stroke-miterlimit:10;" d="
			M598.925,401.912c0,0-3.895,0.417-4.701-2.317c-0.682-2.312,0.682-5.067,5.771-4.809c5.089,0.258,7.679,5.066,7.351,8.734
			c-0.328,3.668-4.431,9.128-11.738,7.907c-7.307-1.221-12.309-7.093-9.757-14.383c1.934-5.523,10.088-11.815,13.158-16.338
			c3.009-4.433,6.918-13.831,0.604-14.708c-6.054-0.841-6.429,6.618-3.119,22.374c3.311,15.756,4.587,31.717,2.321,35.263
			c-1.924,3.011-5.536,2.979-7.873-1.25"/>
		<path style="fill:none;stroke:#FFFFFD;stroke-width:2.151;stroke-linecap:round;stroke-linejoin:round;stroke-miterlimit:10;" d="
			M689.235,142.702c0,0-3.801,0.944-4.973-1.654c-0.991-2.197-0.016-5.113,5.06-5.551c5.076-0.439,8.299,3.971,8.474,7.649
			c0.176,3.678-3.144,9.648-10.549,9.435c-7.405-0.212-13.162-5.347-11.629-12.917c1.162-5.736,8.381-13.081,10.805-17.981
			c2.376-4.802,4.966-14.645-1.408-14.652c-6.112-0.007-5.466,7.433-0.036,22.591c5.43,15.157,8.872,30.794,7.111,34.616
			c-1.495,3.246-5.078,3.706-7.969-0.163"/>
		<g>
			<circle style="fill:#FFFFFF;" cx="540.272" cy="404.722" r="31"/>
			<polygon style="fill:#2FB988;" points="540.272,394.559 529.224,402.586 533.444,415.575 547.101,415.575 551.321,402.586 			"/>
			<path style="fill:#2FB988;" d="M558.598,402.603l9.561,13.159l1.24-0.403c1.212-3.318,1.874-6.9,1.874-10.637
				c0-5.265-1.317-10.221-3.633-14.564L558.598,402.603z"/>
			<path style="fill:#2FB988;" d="M543.346,435.569c8.237-0.811,15.523-4.848,20.588-10.828l-14.611-1.854L543.346,435.569z"/>
			<path style="fill:#2FB988;" d="M531.223,422.887l-14.611,1.854c5.065,5.98,12.35,10.017,20.588,10.828L531.223,422.887z"/>
			<path style="fill:#2FB988;" d="M509.272,404.722c0,3.852,0.708,7.536,1.991,10.939l9.741-11.57l-8.359-13.425
				C510.494,394.885,509.272,399.659,509.272,404.722z"/>
			<path style="fill:#2FB988;" d="M526.958,376.722l13.158,9.56l13.159-9.561l-0.053-0.164c-3.941-1.815-8.325-2.835-12.949-2.835
				C535.506,373.722,530.992,374.8,526.958,376.722z"/>
		</g>
		<g>
			
				<ellipse transform="matrix(0.0161 -0.9999 0.9999 0.0161 579.9186 851.454)" style="fill:#DDE560;" cx="722.606" cy="131.055" rx="21.333" ry="21.333"/>
			<polygon style="fill:#64D357;" points="727.635,126.195 718.379,124.566 713.969,132.866 720.5,139.624 728.946,135.502 			"/>
			<path style="fill:#64D357;" d="M732.418,139.111l-1.94,11.024l0.792,0.421c2.221-0.987,4.311-2.372,6.16-4.159
				c2.606-2.518,4.429-5.539,5.47-8.762L732.418,139.111z"/>
			<path style="fill:#64D357;" d="M708.809,147.327c4.34,3.689,9.822,5.364,15.203,5.011l-6.07-8.118L708.809,147.327z"/>
			<path style="fill:#64D357;" d="M709.289,135.263l-7.905-6.344c-0.537,5.366,0.949,10.902,4.486,15.366L709.289,135.263z"/>
			<path style="fill:#64D357;" d="M707.782,115.714c-1.906,1.842-3.391,3.954-4.461,6.216l10.384-0.712l2.647-10.557
				C713.234,111.614,710.287,113.293,707.782,115.714z"/>
			<path style="fill:#64D357;" d="M730.095,111.076l1.561,11.083l11.024,1.94l0.056-0.105c-0.987-2.818-2.578-5.475-4.789-7.764
				C735.668,113.872,732.976,112.154,730.095,111.076z"/>
		</g>
		<g>
			<defs>
				
					<ellipse id="XMLID_2_" transform="matrix(0.7071 -0.7071 0.7071 0.7071 -35.4954 526.4166)" cx="617.693" cy="306.055" rx="25" ry="25"/>
			</defs>
			<use xlink:href="#XMLID_2_"  style="overflow:visible;fill:#64D357;"/>
			<clipPath id="XMLID_00000035491132668179268890000017024216993378314634_">
				<use xlink:href="#XMLID_2_"  style="overflow:visible;"/>
			</clipPath>
			<g style="clip-path:url(#XMLID_00000035491132668179268890000017024216993378314634_);">
				<path style="fill:none;stroke:#2FB988;stroke-width:2;stroke-linecap:round;stroke-linejoin:round;stroke-miterlimit:10;" d="
					M602.237,286.405c0,0,7.828,17.974,30.854,39.768"/>
				<path style="fill:none;stroke:#2FB988;stroke-width:2;stroke-linecap:round;stroke-linejoin:round;stroke-miterlimit:10;" d="
					M637.505,291.199c0,0-17.974,7.828-39.768,30.854"/>
				<path style="fill:none;stroke:#2FB988;stroke-width:2;stroke-linecap:round;stroke-linejoin:round;stroke-miterlimit:10;" d="
					M588.905,311.093c0,0,16.176-7.699,21.518-1.085c5.342,6.614-5.833,24.565-5.833,24.565"/>
				<path style="fill:none;stroke:#2FB988;stroke-width:2;stroke-linecap:round;stroke-linejoin:round;stroke-miterlimit:10;" d="
					M630.746,282.638c0,0-14.356,13.036-9.729,18.728s24.806,0.161,24.806,0.161"/>
			</g>
		</g>
		<g>
			<defs>
				
					<ellipse id="XMLID_10_" transform="matrix(0.1252 -0.9921 0.9921 0.1252 -393.2135 390.9835)" cx="25.11" cy="418.473" rx="16.333" ry="16.333"/>
			</defs>
			<use xlink:href="#XMLID_10_"  style="overflow:visible;fill:#64D357;"/>
			<clipPath id="XMLID_00000174579695062244663490000011061603774311601817_">
				<use xlink:href="#XMLID_10_"  style="overflow:visible;"/>
			</clipPath>
			<g style="clip-path:url(#XMLID_00000174579695062244663490000011061603774311601817_);">
				
					<path style="fill:none;stroke:#2FB988;stroke-width:1.3067;stroke-linecap:round;stroke-linejoin:round;stroke-miterlimit:10;" d="
					M15.011,405.635c0,0,5.114,11.743,20.158,25.981"/>
				
					<path style="fill:none;stroke:#2FB988;stroke-width:1.3067;stroke-linecap:round;stroke-linejoin:round;stroke-miterlimit:10;" d="
					M38.053,408.767c0,0-11.743,5.114-25.981,20.158"/>
				
					<path style="fill:none;stroke:#2FB988;stroke-width:1.3067;stroke-linecap:round;stroke-linejoin:round;stroke-miterlimit:10;" d="
					M6.301,421.764c0,0,10.568-5.03,14.059-0.709s-3.811,16.049-3.811,16.049"/>
				
					<path style="fill:none;stroke:#2FB988;stroke-width:1.3067;stroke-linecap:round;stroke-linejoin:round;stroke-miterlimit:10;" d="
					M33.637,403.174c0,0-9.379,8.517-6.356,12.236s16.206,0.105,16.206,0.105"/>
			</g>
		</g>
		<g>
			<path style="fill:#FFFFFF;" d="M552.875,338.003l-3.614,5.57c-7.887-0.54-11.459-7.601-11.459-7.601l-0.21-0.136l3.538-5.453
				C541.13,330.383,544.782,337.616,552.875,338.003z"/>
			<path style="fill:#DDE560;" d="M595.488,272.168l-42.613,65.835c-8.093-0.387-11.745-7.62-11.745-7.62l42.667-65.919
				c0,0,3.652,7.233,11.745,7.62C595.526,272.11,595.504,272.143,595.488,272.168z"/>
			<path style="fill:#FFFFFF;" d="M598.867,246.818c0,0,0.578,2.306,4.793,3.122c0,0-7.552,21.237-8.118,22.145
				c-8.093-0.387-11.745-7.62-11.745-7.62c0.566-0.872,14.962-17.848,14.962-17.848L598.867,246.818z"/>
			<path style="fill:#2FB988;" d="M603.66,249.939c-4.215-0.816-4.793-3.122-4.793-3.122l-0.108-0.201l6.857-8.118
				c0.807-0.418,1.766,0.18,1.744,1.096L603.66,249.939z"/>
			<path style="fill:#64D357;" d="M537.802,335.972c0,0,3.572,7.062,11.459,7.601l-1.649,2.542
				c-3.81,5.872-15.282-2.167-11.745-7.62l1.725-2.659L537.802,335.972z"/>
			<g>
				<path style="fill:#001D48;" d="M546.739,334.93c-0.059-0.012-0.116-0.035-0.169-0.07c-0.232-0.151-0.298-0.46-0.147-0.692
					l40.626-62.773c0.15-0.232,0.46-0.296,0.691-0.148c0.232,0.151,0.298,0.46,0.147,0.692l-40.626,62.773
					C547.146,334.891,546.935,334.971,546.739,334.93z"/>
			</g>
		</g>
		<g>
			<path style="fill:#FFFFFF;" d="M268.077,477.949l-2.259,3.481c-4.929-0.337-7.162-4.751-7.162-4.751l-0.131-0.085l2.211-3.408
				C260.737,473.187,263.02,477.707,268.077,477.949z"/>
			<path style="fill:#DDE560;" d="M294.71,436.803l-26.633,41.146c-5.058-0.242-7.34-4.762-7.34-4.762l26.667-41.198
				c0,0,2.282,4.52,7.34,4.762C294.734,436.767,294.72,436.788,294.71,436.803z"/>
			<path style="fill:#FFFFFF;" d="M296.822,420.959c0,0,0.361,1.441,2.996,1.951c0,0-4.72,13.273-5.074,13.84
				c-5.058-0.242-7.34-4.762-7.34-4.762c0.354-0.545,9.351-11.155,9.351-11.155L296.822,420.959z"/>
			<path style="fill:#2FB988;" d="M299.818,422.91c-2.634-0.51-2.996-1.951-2.996-1.951l-0.068-0.126l4.285-5.074
				c0.505-0.261,1.104,0.113,1.09,0.685L299.818,422.91z"/>
			<path style="fill:#64D357;" d="M258.657,476.68c0,0,2.232,4.413,7.162,4.751l-1.031,1.589c-2.381,3.67-9.551-1.354-7.34-4.762
				l1.078-1.662L258.657,476.68z"/>
			<g>
				<path style="fill:#001D48;" d="M264.243,476.028c-0.037-0.008-0.072-0.022-0.106-0.043c-0.145-0.094-0.186-0.287-0.092-0.432
					l25.391-39.232c0.094-0.145,0.287-0.185,0.432-0.092c0.145,0.094,0.186,0.287,0.092,0.432l-25.391,39.232
					C264.497,476.004,264.365,476.054,264.243,476.028z"/>
			</g>
		</g>
		<g>
			<g>
				<g>
					<path style="fill:#DDE560;" d="M566.865,368.465c0.714-11.49,1.428-22.979,2.142-34.469c-0.569,0.236-1.138,0.471-1.707,0.707
						c7.657,8.821,13.857,18.603,18.608,29.268c0.523,1.173,2.247,0.157,1.727-1.009c-4.821-10.821-11.158-20.729-18.921-29.673
						c-0.609-0.701-1.658-0.092-1.707,0.707c-0.714,11.49-1.428,22.979-2.142,34.469
						C564.785,369.75,566.785,369.745,566.865,368.465L566.865,368.465z"/>
				</g>
			</g>
			<g>
				<g>
					<path style="fill:#DDE560;" d="M565.782,354.623c5.194-2.21,10.387-4.419,15.581-6.628c1.181-0.502,0.163-2.226-1.009-1.727
						c-5.194,2.21-10.387,4.419-15.581,6.628C563.592,353.398,564.61,355.121,565.782,354.623L565.782,354.623z"/>
				</g>
			</g>
			<g>
				<g>
					<path style="fill:#DDE560;" d="M574.125,327.879c3.109,3.94,6.218,7.88,9.327,11.821c0.797,1.01,2.203-0.414,1.414-1.414
						c-3.109-3.94-6.218-7.881-9.327-11.821C574.742,325.456,573.336,326.879,574.125,327.879L574.125,327.879z"/>
				</g>
			</g>
			<g>
				<g>
					<path style="fill:#DDE560;" d="M575.984,336.757c3.697-1.839,7.188-3.997,10.487-6.481c1.016-0.765,0.02-2.502-1.009-1.727
						c-3.298,2.484-6.79,4.642-10.487,6.481C573.822,335.604,574.834,337.329,575.984,336.757L575.984,336.757z"/>
				</g>
			</g>
		</g>
		<g>
			<g>
				<g>
					<path style="fill:#FFFFFD;" d="M226.865,492.465c0.714-11.49,1.428-22.979,2.142-34.469c-0.569,0.236-1.138,0.471-1.707,0.707
						c7.657,8.821,13.857,18.603,18.608,29.268c0.523,1.173,2.247,0.157,1.727-1.009c-4.821-10.821-11.158-20.729-18.921-29.673
						c-0.609-0.701-1.658-0.092-1.707,0.707c-0.714,11.49-1.428,22.979-2.142,34.469
						C224.785,493.75,226.785,493.745,226.865,492.465L226.865,492.465z"/>
				</g>
			</g>
			<g>
				<g>
					<path style="fill:#FFFFFD;" d="M225.782,478.623c5.194-2.21,10.387-4.419,15.581-6.628c1.181-0.502,0.163-2.226-1.009-1.727
						c-5.194,2.21-10.387,4.419-15.581,6.628C223.592,477.398,224.61,479.121,225.782,478.623L225.782,478.623z"/>
				</g>
			</g>
			<g>
				<g>
					<path style="fill:#FFFFFD;" d="M234.125,451.879c3.109,3.94,6.218,7.88,9.327,11.821c0.797,1.01,2.203-0.414,1.414-1.414
						c-3.109-3.94-6.218-7.881-9.327-11.821C234.742,449.456,233.336,450.879,234.125,451.879L234.125,451.879z"/>
				</g>
			</g>
			<g>
				<g>
					<path style="fill:#FFFFFD;" d="M235.984,460.757c3.697-1.839,7.188-3.997,10.487-6.481c1.016-0.765,0.02-2.502-1.009-1.727
						c-3.298,2.484-6.79,4.642-10.487,6.481C233.822,459.604,234.834,461.329,235.984,460.757L235.984,460.757z"/>
				</g>
			</g>
		</g>
		<g>
			<g id="XMLID_3_">
				<g>
					<path style="fill:#64D357;" d="M700.768,206.418l32.207,31.994c-3.843,9.042-11.806,11.884-11.806,11.884l-32.207-31.994
						C688.962,218.303,696.925,215.461,700.768,206.418z"/>
					<path style="fill:#2FB988;" d="M695.863,201.546l4.905,4.872c-3.843,9.042-11.806,11.884-11.806,11.884l-4.905-4.872
						C684.057,213.43,692.021,210.589,695.863,201.546z"/>
					<path style="fill:#2FB988;" d="M732.974,238.413l4.905,4.872l-0.164,0.165c-3.454,8.121-10.218,11.237-11.565,11.797
						l-4.982-4.949C721.168,250.297,729.132,247.455,732.974,238.413z"/>
					<path style="fill:#64D357;" d="M741.152,246.536c0,0,3.024,2.396-3.183,8.644c-6.203,6.244-8.623,3.24-8.623,3.24l-3.195-3.174
						c1.347-0.56,8.111-3.676,11.565-11.797l0.164-0.165L741.152,246.536z"/>
					<path style="fill:#64D357;" d="M694.409,200.102l1.454,1.444c-3.843,9.042-11.806,11.884-11.806,11.884l-1.769-1.757
						c-0.832-0.826-1.223-1.987-1.086-3.149c0.262-2.165,0.336-5.988-1.553-9.498c-0.202-0.382-0.121-0.856,0.183-1.162l0.763-0.768
						c0.331-0.334,0.855-0.395,1.252-0.136c1.484,0.965,5.249,3.044,8.978,2.162C692.118,198.816,693.468,199.167,694.409,200.102z"
						/>
				</g>
			</g>
			<path style="fill:#2FB988;" d="M713.255,227.221c5.19,5.156,8.635,10.103,7.695,11.05c-0.94,0.947-5.91-2.466-11.101-7.622
				c-5.19-5.156-8.635-10.103-7.695-11.05C703.095,218.653,708.065,222.065,713.255,227.221z"/>
		</g>
		<g>
			<g id="XMLID_8_">
				<g>
					<path style="fill:#64D357;" d="M166.575,434.538l32.207,31.994c-3.843,9.043-11.806,11.884-11.806,11.884l-32.207-31.994
						C154.769,446.423,162.733,443.581,166.575,434.538z"/>
					<path style="fill:#2FB988;" d="M161.671,429.666l4.905,4.872c-3.843,9.042-11.806,11.884-11.806,11.884l-4.905-4.872
						C149.865,441.55,157.828,438.708,161.671,429.666z"/>
					<path style="fill:#2FB988;" d="M198.782,466.533l4.905,4.872l-0.163,0.165c-3.454,8.121-10.218,11.237-11.565,11.797
						l-4.982-4.949C186.976,478.417,194.939,475.575,198.782,466.533z"/>
					<path style="fill:#64D357;" d="M206.959,474.656c0,0,3.024,2.396-3.183,8.644c-6.203,6.244-8.623,3.24-8.623,3.24l-3.195-3.174
						c1.347-0.56,8.111-3.676,11.565-11.797l0.163-0.165L206.959,474.656z"/>
					<path style="fill:#64D357;" d="M160.217,428.222l1.454,1.444c-3.843,9.043-11.806,11.884-11.806,11.884l-1.769-1.757
						c-0.832-0.826-1.223-1.987-1.086-3.149c0.262-2.165,0.336-5.988-1.553-9.499c-0.202-0.382-0.121-0.856,0.183-1.162l0.763-0.768
						c0.331-0.334,0.855-0.395,1.252-0.136c1.484,0.965,5.249,3.044,8.978,2.162C157.926,426.936,159.276,427.287,160.217,428.222z"
						/>
				</g>
			</g>
			<path style="fill:#2FB988;" d="M179.063,455.341c5.19,5.156,8.635,10.103,7.695,11.05c-0.941,0.947-5.91-2.466-11.101-7.622
				c-5.19-5.156-8.635-10.103-7.695-11.05C168.903,446.772,173.872,450.185,179.063,455.341z"/>
		</g>
		<g>
			<g id="XMLID_4_">
				<g>
					<path style="fill:#2FB988;" d="M514.67,358.025l-26.369,15.102c-5.153-4.086-5.573-9.73-5.573-9.73l26.369-15.102
						C509.098,348.294,509.517,353.939,514.67,358.025z"/>
					<path style="fill:#64D357;" d="M518.686,355.725l-4.016,2.3c-5.153-4.086-5.573-9.73-5.573-9.73l4.016-2.3
						C513.113,345.995,513.533,351.639,518.686,355.725z"/>
					<path style="fill:#64D357;" d="M488.301,373.126l-4.016,2.3l-0.077-0.135c-4.627-3.672-5.437-8.59-5.559-9.559l4.079-2.336
						C482.728,363.396,483.148,369.04,488.301,373.126z"/>
					<path style="fill:#2FB988;" d="M481.606,376.961c0,0-2.083,1.526-5.013-3.59c-2.928-5.112-0.56-6.14-0.56-6.14l2.616-1.498
						c0.122,0.969,0.931,5.888,5.559,9.559l0.077,0.135L481.606,376.961z"/>
					<path style="fill:#2FB988;" d="M519.876,355.043l-1.19,0.682c-5.153-4.086-5.573-9.73-5.573-9.73l1.448-0.829
						c0.681-0.39,1.5-0.436,2.225-0.141c1.351,0.553,3.805,1.28,6.406,0.685c0.282-0.062,0.574,0.074,0.718,0.324l0.36,0.629
						c0.156,0.273,0.103,0.622-0.135,0.832c-0.887,0.786-2.897,2.847-2.99,5.41C521.113,353.793,520.647,354.602,519.876,355.043z"
						/>
				</g>
			</g>
			<path style="fill:#64D357;" d="M499.027,362.388c-4.25,2.434-8.054,3.778-8.498,3.003c-0.444-0.775,2.641-3.376,6.891-5.81
				c4.25-2.434,8.054-3.778,8.498-3.003C506.361,357.353,503.276,359.955,499.027,362.388z"/>
		</g>
		<g>
			<g id="XMLID_11_">
				<g>
					<path style="fill:#2FB988;" d="M34.96,450.422l15.164,26.334c-4.074,5.163-9.717,5.595-9.717,5.595l-15.164-26.334
						C25.242,456.017,30.886,455.584,34.96,450.422z"/>
					<path style="fill:#64D357;" d="M32.65,446.411l2.309,4.01c-4.074,5.163-9.717,5.595-9.717,5.595l-2.309-4.01
						C22.933,452.007,28.576,451.574,32.65,446.411z"/>
					<path style="fill:#64D357;" d="M50.123,476.755l2.309,4.01l-0.134,0.077c-3.661,4.636-8.578,5.457-9.546,5.582l-2.346-4.074
						C40.406,482.351,46.049,481.918,50.123,476.755z"/>
					<path style="fill:#2FB988;" d="M53.973,483.441c0,0,1.531,2.079-3.578,5.021c-5.105,2.94-6.139,0.574-6.139,0.574l-1.504-2.612
						c0.968-0.125,5.885-0.945,9.546-5.582l0.134-0.077L53.973,483.441z"/>
					<path style="fill:#2FB988;" d="M31.966,445.223l0.684,1.189c-4.074,5.163-9.717,5.595-9.717,5.595l-0.833-1.446
						c-0.392-0.68-0.44-1.499-0.146-2.225c0.55-1.352,1.271-3.807,0.67-6.407c-0.063-0.282,0.072-0.574,0.323-0.718l0.628-0.362
						c0.273-0.157,0.622-0.104,0.833,0.133c0.788,0.885,2.854,2.89,5.417,2.977C30.713,443.989,31.523,444.453,31.966,445.223z"/>
				</g>
			</g>
			<path style="fill:#64D357;" d="M39.36,466.055c2.444,4.244,3.797,8.045,3.023,8.491c-0.774,0.446-3.383-2.633-5.826-6.877
				c-2.444-4.244-3.797-8.045-3.023-8.491C34.308,458.732,36.916,461.811,39.36,466.055z"/>
		</g>
		<g>
			<g id="XMLID_5_">
				<g>
					<path style="fill:#2FB988;" d="M740.852,52.041l-0.77,30.378c-6.167,2.285-11.209-0.284-11.209-0.284l0.77-30.378
						C729.642,51.757,734.685,54.326,740.852,52.041z"/>
					<path style="fill:#64D357;" d="M740.969,47.415l-0.117,4.626c-6.167,2.285-11.21-0.284-11.21-0.284l0.117-4.626
						C729.76,47.131,734.802,49.7,740.969,47.415z"/>
					<path style="fill:#64D357;" d="M740.082,82.419l-0.117,4.626l-0.155-0.004c-5.54,2.051-10.165,0.191-11.056-0.207l0.119-4.699
						C728.872,82.134,733.915,84.704,740.082,82.419z"/>
					<path style="fill:#2FB988;" d="M739.886,90.132c0,0,0.224,2.573-5.67,2.423c-5.889-0.149-5.54-2.707-5.54-2.707l0.076-3.014
						c0.891,0.398,5.516,2.258,11.056,0.207l0.155,0.004L739.886,90.132z"/>
					<path style="fill:#2FB988;" d="M741.004,46.044l-0.035,1.371c-6.167,2.285-11.209-0.284-11.209-0.284l0.042-1.668
						c0.02-0.785,0.405-1.508,1.034-1.976c1.174-0.868,3.068-2.588,3.909-5.121c0.093-0.274,0.361-0.452,0.65-0.445l0.724,0.018
						c0.315,0.008,0.585,0.235,0.642,0.547c0.212,1.166,0.931,3.954,3.074,5.363C740.577,44.338,741.026,45.156,741.004,46.044z"/>
				</g>
			</g>
			<path style="fill:#64D357;" d="M736.466,67.678c-0.124,4.896-0.949,8.846-1.842,8.823c-0.893-0.023-1.516-4.01-1.392-8.905
				s0.948-8.846,1.841-8.823C735.967,58.796,736.59,62.783,736.466,67.678z"/>
		</g>
		<g>
			<path style="fill:#DDE560;" d="M522.395,466.948l24.316-18.938c5.759,3.365,6.988,8.973,6.988,8.973l-24.316,18.938
				C529.383,475.921,528.154,470.314,522.395,466.948z"/>
			<path style="fill:#64D357;" d="M518.692,469.832l3.703-2.884c5.759,3.365,6.988,8.973,6.988,8.973l-3.703,2.884
				C525.68,478.805,524.451,473.197,518.692,469.832z"/>
			<path style="fill:#64D357;" d="M546.711,448.01l3.703-2.884l0.097,0.124c5.172,3.024,6.689,7.848,6.95,8.803l-3.762,2.93
				C553.699,456.983,552.47,451.375,546.711,448.01z"/>
			<path style="fill:#DDE560;" d="M552.885,443.202c0,0,1.873-1.83,5.548,2.887c3.671,4.714,1.441,6.086,1.441,6.086l-2.412,1.879
				c-0.262-0.955-1.778-5.778-6.95-8.803l-0.097-0.124L552.885,443.202z"/>
			<path style="fill:#DDE560;" d="M517.595,470.687l1.097-0.855c5.759,3.365,6.988,8.973,6.988,8.973l-1.336,1.04
				c-0.628,0.489-1.443,0.653-2.214,0.46c-1.435-0.362-4.003-0.741-6.53,0.229c-0.275,0.103-0.587,0.008-0.767-0.223l-0.452-0.58
				c-0.196-0.252-0.192-0.61,0.016-0.855c0.778-0.916,2.501-3.273,2.228-5.86C516.532,472.119,516.884,471.24,517.595,470.687z"/>
			<path style="fill:#64D357;" d="M537.479,460.328c3.919-3.052,7.547-4.947,8.103-4.232c0.557,0.715-2.169,3.768-6.087,6.82
				c-3.919,3.052-7.547,4.947-8.103,4.232C530.834,466.433,533.56,463.379,537.479,460.328z"/>
		</g>
		<circle style="fill:#2FB988;" cx="482.36" cy="396.055" r="10.333"/>
		<circle style="fill:#2FB988;" cx="652.36" cy="161.055" r="10.333"/>
		
			<rect x="455.027" y="425.388" transform="matrix(0.973 0.2308 -0.2308 0.973 113.0236 -95.5605)" style="fill:#DDE560;" width="20" height="20"/>
		
			<rect x="135.027" y="469.388" transform="matrix(0.973 0.2308 -0.2308 0.973 114.5403 -20.5281)" style="fill:#DDE560;" width="20" height="20"/>
		
			<rect x="663.36" y="68.388" transform="matrix(0.973 0.2308 -0.2308 0.973 36.2636 -153.2721)" style="fill:#DDE560;" width="20" height="20"/>
		
			<rect x="515.816" y="320.511" transform="matrix(0.973 0.2308 -0.2308 0.973 89.7399 -111.8474)" style="fill:#DDE560;" width="14.421" height="14.421"/>
		<polygon style="fill:#64D357;" points="498.295,432.642 492.921,455.077 515.037,448.514 		"/>
		<polygon style="fill:#64D357;" points="12.295,469.642 6.921,492.077 29.038,485.514 		"/>
		<polygon style="fill:#64D357;" points="654.962,107.975 649.587,130.41 671.704,123.847 		"/>
		<polygon style="fill:#64D357;" points="730.655,303.585 726.79,319.722 742.697,315.001 		"/>
		<g>
			<g>
				
					<line style="fill:none;stroke:#2FB988;stroke-linecap:round;stroke-linejoin:round;stroke-miterlimit:10;" x1="709.331" y1="165.186" x2="713.626" y2="180.738"/>
				
					<line style="fill:none;stroke:#64D357;stroke-linecap:round;stroke-linejoin:round;stroke-miterlimit:10;" x1="702.603" y1="167.045" x2="706.898" y2="182.596"/>
				
					<line style="fill:none;stroke:#2FB988;stroke-linecap:round;stroke-linejoin:round;stroke-miterlimit:10;" x1="696.392" y1="170.776" x2="699.653" y2="182.581"/>
				
					<line style="fill:none;stroke:#64D357;stroke-linecap:round;stroke-linejoin:round;stroke-miterlimit:10;" x1="633.147" y1="203.412" x2="628.623" y2="187.03"/>
				
					<line style="fill:none;stroke:#2FB988;stroke-linecap:round;stroke-linejoin:round;stroke-miterlimit:10;" x1="639.576" y1="200.467" x2="635.658" y2="186.281"/>
				
					<line style="fill:none;stroke:#64D357;stroke-linecap:round;stroke-linejoin:round;stroke-miterlimit:10;" x1="645.577" y1="195.977" x2="643.106" y2="187.028"/>
				
					<line style="fill:none;stroke:#64D357;stroke-linecap:round;stroke-linejoin:round;stroke-miterlimit:10;" x1="678.106" y1="176.572" x2="680.983" y2="186.991"/>
				
					<line style="fill:none;stroke:#2FB988;stroke-linecap:round;stroke-linejoin:round;stroke-miterlimit:10;" x1="670.906" y1="175.799" x2="675.201" y2="191.35"/>
				
					<line style="fill:none;stroke:#2FB988;stroke-linecap:round;stroke-linejoin:round;stroke-miterlimit:10;" x1="658.633" y1="181.95" x2="661.511" y2="192.369"/>
				
					<line style="fill:none;stroke:#64D357;stroke-linecap:round;stroke-linejoin:round;stroke-miterlimit:10;" x1="664.415" y1="177.592" x2="668.71" y2="193.143"/>
			</g>
			<path style="fill:none;stroke:#DDE560;stroke-width:2;stroke-linecap:round;stroke-linejoin:round;stroke-miterlimit:10;" d="
				M624.425,188.997c0,0,7.622-7.62,34.859,2.653c27.237,10.273,26.318-30.595,58.369-26.416"/>
			<path style="fill:none;stroke:#DDE560;stroke-width:2;stroke-linecap:round;stroke-linejoin:round;stroke-miterlimit:10;" d="
				M628.535,203.878c0,0,10.452,2.628,28.557-20.167c18.105-22.796,38.29,12.751,63.653-7.285"/>
		</g>
		<g>
			<g>
				
					<line style="fill:none;stroke:#2FB988;stroke-linecap:round;stroke-linejoin:round;stroke-miterlimit:10;" x1="381.263" y1="472.121" x2="380.321" y2="488.227"/>
				
					<line style="fill:none;stroke:#64D357;stroke-linecap:round;stroke-linejoin:round;stroke-miterlimit:10;" x1="374.295" y1="471.713" x2="373.352" y2="487.82"/>
				
					<line style="fill:none;stroke:#2FB988;stroke-linecap:round;stroke-linejoin:round;stroke-miterlimit:10;" x1="367.213" y1="473.245" x2="366.498" y2="485.472"/>
				
					<line style="fill:none;stroke:#64D357;stroke-linecap:round;stroke-linejoin:round;stroke-miterlimit:10;" x1="296.827" y1="483.772" x2="297.82" y2="466.806"/>
				
					<line style="fill:none;stroke:#2FB988;stroke-linecap:round;stroke-linejoin:round;stroke-miterlimit:10;" x1="303.861" y1="483.055" x2="304.721" y2="468.363"/>
				
					<line style="fill:none;stroke:#64D357;stroke-linecap:round;stroke-linejoin:round;stroke-miterlimit:10;" x1="310.989" y1="480.737" x2="311.532" y2="471.469"/>
				
					<line style="fill:none;stroke:#64D357;stroke-linecap:round;stroke-linejoin:round;stroke-miterlimit:10;" x1="348.034" y1="472.843" x2="347.403" y2="483.634"/>
				
					<line style="fill:none;stroke:#2FB988;stroke-linecap:round;stroke-linejoin:round;stroke-miterlimit:10;" x1="341.468" y1="469.792" x2="340.525" y2="485.898"/>
				
					<line style="fill:none;stroke:#2FB988;stroke-linecap:round;stroke-linejoin:round;stroke-miterlimit:10;" x1="327.868" y1="471.663" x2="327.236" y2="482.453"/>
				
					<line style="fill:none;stroke:#64D357;stroke-linecap:round;stroke-linejoin:round;stroke-miterlimit:10;" x1="334.745" y1="469.399" x2="333.803" y2="485.505"/>
			</g>
			<path style="fill:none;stroke:#DDE560;stroke-width:2;stroke-linecap:round;stroke-linejoin:round;stroke-miterlimit:10;" d="
				M293.213,467.316c0,0,9.67-4.759,32.147,13.739c22.477,18.498,34.77-20.488,63.767-6.208"/>
			<path style="fill:none;stroke:#DDE560;stroke-width:2;stroke-linecap:round;stroke-linejoin:round;stroke-miterlimit:10;" d="
				M292.311,482.728c0,0,9.048,5.855,33.531-9.895c24.482-15.75,32.142,24.404,62.607,13.605"/>
		</g>
		<g>
			<g>
				<defs>
					<path id="XMLID_38_" d="M745.845,195.418l-17.871-12.992c-1.267-0.921-3.035,0.046-2.943,1.61l0.927,15.661l-8.039,11.058
						c-1.601-0.854-2.902-1.178-3.247-0.703c-0.491,0.676,1.125,2.688,3.61,4.494s4.897,2.723,5.388,2.047
						c0.346-0.476-0.356-1.614-1.667-2.877l8.036-11.053l15.183-3.949C746.737,198.319,747.112,196.339,745.845,195.418z"/>
				</defs>
				<use xlink:href="#XMLID_38_"  style="overflow:visible;fill:#FFFFFD;"/>
				<clipPath id="XMLID_00000141427044355612196500000010580485944995580095_">
					<use xlink:href="#XMLID_38_"  style="overflow:visible;"/>
				</clipPath>
			</g>
			<path style="fill:#2FB988;" d="M727.443,197.632l-0.731-12.353c-0.038-0.645,0.691-1.044,1.214-0.664l15.852,11.524
				c0.523,0.38,0.368,1.197-0.258,1.36l-11.511,2.994c-0.776,0.202-1.547-0.343-1.616-1.142l-0.005-0.057
				c-0.071-0.83-0.533-0.426-1.284-0.307C728.263,199.12,727.493,198.482,727.443,197.632z"/>
			<path style="fill:none;stroke:#001D48;stroke-linecap:round;stroke-linejoin:round;stroke-miterlimit:10;" d="M718.059,211.302
				c0,0,1.194,2.233,3.326,2.241"/>
		</g>
		<g>
			<g>
				<defs>
					<path id="XMLID_9_" d="M207.199,454.039l26.019-15.249c1.845-1.081,1.602-3.821-0.405-4.56l-20.093-7.402l-9.435-16.099
						c1.943-1.535,3.059-2.986,2.654-3.677c-0.576-0.984-3.976-0.062-7.594,2.058c-3.618,2.12-6.083,4.636-5.506,5.62
						c0.406,0.693,2.213,0.438,4.509-0.512l9.431,16.092l-3.361,21.147C203.082,453.569,205.354,455.12,207.199,454.039z"/>
				</defs>
				<use xlink:href="#XMLID_9_"  style="overflow:visible;fill:#FFFFFD;"/>
				<clipPath id="XMLID_00000064325082623770725590000002209259938760722333_">
					<use xlink:href="#XMLID_9_"  style="overflow:visible;"/>
				</clipPath>
			</g>
			<path style="fill:#2FB988;" d="M214.491,429.813l15.849,5.839c0.828,0.305,0.928,1.436,0.167,1.882l-23.079,13.526
				c-0.761,0.446-1.699-0.194-1.56-1.065l2.548-16.033c0.172-1.081,1.275-1.748,2.312-1.398l0.074,0.025
				c1.076,0.365,0.825-0.434,1.086-1.439C212.18,430.025,213.4,429.412,214.491,429.813z"/>
			
				<path style="fill:none;stroke:#001D48;stroke-width:1.3649;stroke-linecap:round;stroke-linejoin:round;stroke-miterlimit:10;" d="
				M202.523,410.604c0,0-3.445,0.273-4.621,2.935"/>
		</g>
		<g>
			
				<path style="fill:none;stroke:#FFFFFF;stroke-width:5.3657;stroke-linecap:round;stroke-linejoin:round;stroke-miterlimit:10;" d="
				M421.976,381.442c0,0,6.99-4.607,18.384,7.613c11.394,12.22,18.833,4.775,18.833,4.775"/>
			
				<path style="fill:none;stroke:#FFFFFF;stroke-width:5.3657;stroke-linecap:round;stroke-linejoin:round;stroke-miterlimit:10;" d="
				M422.141,402.079c0,0,9.594-3.761,13.784-17.155"/>
			
				<path style="fill:none;stroke:#FFFFFF;stroke-width:5.3657;stroke-linecap:round;stroke-linejoin:round;stroke-miterlimit:10;" d="
				M439.286,409.179c0,0,1.12-14.392,4.252-16.111"/>
		</g>
		<g>
			<g>
				<defs>
					<path id="XMLID_42_" d="M470.01,461.718c-2.697,3.474-4.333,6.717-3.654,7.244c0.387,0.301,1.455-0.369,2.792-1.626
						l30.31,23.536c2.167,1.682,5.286,1.29,6.969-0.876c1.682-2.166,1.29-5.286-0.876-6.969l-30.31-23.536
						c0.887-1.607,1.271-2.807,0.884-3.108C475.445,455.857,472.707,458.245,470.01,461.718z"/>
				</defs>
				<use xlink:href="#XMLID_42_"  style="overflow:visible;fill:#FFFFFD;"/>
				<clipPath id="XMLID_00000073701981149280275400000010353819667195377024_">
					<use xlink:href="#XMLID_42_"  style="overflow:visible;"/>
				</clipPath>
			</g>
			<path style="fill:#64D357;" d="M505.199,489.043c1.155-1.487,0.886-3.629-0.602-4.784l-13.57-10.538
				c-0.87,1.12-0.792,2.12-0.5,3.031c0.292,0.911-0.912,1.428-1.989,2.045c-1.077,0.617-0.2,1.469-0.2,1.469l12.078,9.378
				C501.902,490.8,504.044,490.53,505.199,489.043z"/>
			<path style="fill:none;stroke:#001D48;stroke-linecap:round;stroke-linejoin:round;stroke-miterlimit:10;" d="M469.585,466.142
				c0.471-0.787,1.24-1.892,2.16-3.077c0.988-1.272,1.93-2.354,2.586-2.994"/>
		</g>
		<g>
			<g>
				<defs>
					<path id="XMLID_6_" d="M695.009,10.402c-1.48,4.141-2.023,7.733-1.213,8.022c0.462,0.165,1.267-0.804,2.146-2.415
						l36.137,12.914c2.583,0.923,5.425-0.422,6.348-3.005c0.923-2.583-0.422-5.425-3.005-6.348L699.285,6.655
						c0.341-1.803,0.333-3.063-0.129-3.228C698.345,3.138,696.489,6.26,695.009,10.402z"/>
				</defs>
				<use xlink:href="#XMLID_6_"  style="overflow:visible;fill:#FFFFFD;"/>
				<clipPath id="XMLID_00000106845651285450941720000010681696520319495048_">
					<use xlink:href="#XMLID_6_"  style="overflow:visible;"/>
				</clipPath>
			</g>
			<path style="fill:#DDE560;" d="M736.963,25.395c0.634-1.773-0.29-3.724-2.063-4.358l-16.179-5.782
				c-0.477,1.335-0.091,2.262,0.47,3.036c0.562,0.774-0.421,1.642-1.253,2.563c-0.831,0.922,0.268,1.458,0.268,1.458l14.399,5.146
				C734.378,28.092,736.329,27.168,736.963,25.395z"/>
			<path style="fill:none;stroke:#001D48;stroke-linecap:round;stroke-linejoin:round;stroke-miterlimit:10;" d="M695.985,14.738
				c0.202-0.895,0.588-2.185,1.093-3.597c0.542-1.517,1.1-2.838,1.524-3.651"/>
		</g>
		<g>
			<path style="fill:#FFFFFF;" d="M443.1,470.107l-32.453,7.59c-2.511,0.587-5.023-0.972-5.61-3.483l-9.108-38.944
				c-0.587-2.511,0.972-5.023,3.483-5.61l32.453-7.59c2.511-0.587,5.022,0.972,5.61,3.483l9.108,38.944
				C447.17,467.008,445.611,469.519,443.1,470.107z"/>
			<path style="fill:#64D357;" d="M432.485,437.768l-26.666,6.237c-0.797,0.186-1.594-0.309-1.78-1.105l-1.396-5.969
				c-0.186-0.797,0.309-1.594,1.105-1.78l26.666-6.237c0.797-0.186,1.594,0.308,1.78,1.105l1.396,5.969
				C433.777,436.784,433.282,437.581,432.485,437.768z"/>
			<path style="fill:#2FB988;" d="M412.31,451.818l-5.398,1.263c-0.257,0.06-0.515-0.1-0.575-0.357l-0.791-3.381
				c-0.06-0.257,0.1-0.515,0.357-0.575l5.398-1.263c0.257-0.06,0.515,0.1,0.575,0.357l0.791,3.381
				C412.727,451.5,412.567,451.758,412.31,451.818z"/>
			<path style="fill:#2FB988;" d="M420.05,450.008l-5.398,1.262c-0.257,0.06-0.515-0.1-0.575-0.357l-0.791-3.381
				c-0.06-0.257,0.1-0.515,0.357-0.575l5.398-1.263c0.257-0.06,0.515,0.1,0.575,0.357l0.791,3.381
				C420.467,449.69,420.307,449.947,420.05,450.008z"/>
			<path style="fill:#2FB988;" d="M427.791,448.197l-5.398,1.262c-0.257,0.06-0.515-0.1-0.575-0.357l-0.791-3.381
				c-0.06-0.257,0.1-0.515,0.357-0.575l5.398-1.263c0.257-0.06,0.515,0.1,0.575,0.357l0.791,3.381
				C428.208,447.879,428.048,448.137,427.791,448.197z"/>
			<path style="fill:#DDE560;" d="M435.531,446.387l-5.398,1.262c-0.257,0.06-0.515-0.1-0.575-0.357l-0.791-3.381
				c-0.06-0.257,0.1-0.515,0.357-0.575l5.398-1.263c0.257-0.06,0.515,0.1,0.575,0.357l0.791,3.381
				C435.948,446.069,435.788,446.327,435.531,446.387z"/>
			<path style="fill:#2FB988;" d="M413.777,458.091l-5.398,1.263c-0.257,0.06-0.515-0.1-0.575-0.357l-0.791-3.381
				c-0.06-0.257,0.1-0.515,0.357-0.575l5.398-1.263c0.257-0.06,0.515,0.1,0.575,0.357l0.791,3.381
				C414.194,457.773,414.034,458.031,413.777,458.091z"/>
			<path style="fill:#2FB988;" d="M421.517,456.28l-5.398,1.263c-0.257,0.06-0.515-0.1-0.575-0.357l-0.791-3.381
				c-0.06-0.257,0.1-0.515,0.357-0.575l5.398-1.262c0.257-0.06,0.515,0.1,0.575,0.357l0.791,3.381
				C421.934,455.963,421.775,456.22,421.517,456.28z"/>
			<path style="fill:#2FB988;" d="M429.258,454.47l-5.398,1.263c-0.257,0.06-0.515-0.1-0.575-0.357l-0.791-3.381
				c-0.06-0.257,0.1-0.515,0.357-0.575l5.398-1.263c0.257-0.06,0.515,0.1,0.575,0.357l0.791,3.381
				C429.675,454.152,429.515,454.41,429.258,454.47z"/>
			<path style="fill:#DDE560;" d="M436.998,452.66l-5.398,1.263c-0.257,0.06-0.515-0.1-0.575-0.357l-0.791-3.381
				c-0.06-0.257,0.1-0.515,0.357-0.575l5.398-1.262c0.257-0.06,0.515,0.1,0.575,0.357l0.791,3.381
				C437.415,452.342,437.255,452.599,436.998,452.66z"/>
			<path style="fill:#2FB988;" d="M415.244,464.364l-5.398,1.263c-0.257,0.06-0.515-0.1-0.575-0.357l-0.791-3.381
				c-0.06-0.257,0.1-0.515,0.357-0.575l5.398-1.263c0.257-0.06,0.515,0.1,0.575,0.357l0.791,3.381
				C415.661,464.046,415.501,464.303,415.244,464.364z"/>
			<path style="fill:#2FB988;" d="M422.984,462.553l-5.398,1.262c-0.257,0.06-0.515-0.1-0.575-0.357l-0.791-3.381
				c-0.06-0.257,0.1-0.515,0.357-0.575l5.398-1.263c0.257-0.06,0.515,0.1,0.575,0.357l0.791,3.381
				C423.402,462.236,423.242,462.493,422.984,462.553z"/>
			<path style="fill:#2FB988;" d="M430.725,460.743l-5.398,1.263c-0.257,0.06-0.515-0.1-0.575-0.357l-0.791-3.381
				c-0.06-0.257,0.1-0.515,0.357-0.575l5.398-1.263c0.257-0.06,0.515,0.1,0.575,0.357l0.791,3.381
				C431.142,460.425,430.982,460.683,430.725,460.743z"/>
			<path style="fill:#DDE560;" d="M438.465,458.933l-5.398,1.263c-0.257,0.06-0.515-0.1-0.575-0.357l-0.791-3.381
				c-0.06-0.257,0.1-0.515,0.357-0.575l5.398-1.263c0.257-0.06,0.515,0.1,0.575,0.357l0.791,3.381
				C438.882,458.615,438.723,458.872,438.465,458.933z"/>
			<path style="fill:#2FB988;" d="M416.711,470.637l-5.398,1.263c-0.257,0.06-0.515-0.1-0.575-0.357l-0.791-3.381
				c-0.06-0.257,0.1-0.515,0.357-0.575l5.398-1.263c0.257-0.06,0.515,0.1,0.575,0.357l0.791,3.381
				C417.128,470.319,416.968,470.576,416.711,470.637z"/>
			<path style="fill:#2FB988;" d="M424.451,468.826l-5.398,1.263c-0.257,0.06-0.515-0.1-0.575-0.357l-0.791-3.381
				c-0.06-0.257,0.1-0.515,0.357-0.575l5.398-1.262c0.257-0.06,0.515,0.1,0.575,0.357l0.791,3.381
				C424.869,468.509,424.709,468.766,424.451,468.826z"/>
			<path style="fill:#2FB988;" d="M432.192,467.016l-5.398,1.263c-0.257,0.06-0.515-0.1-0.575-0.357l-0.791-3.381
				c-0.06-0.257,0.1-0.515,0.357-0.575l5.398-1.263c0.257-0.06,0.515,0.1,0.575,0.357l0.791,3.381
				C432.609,466.698,432.449,466.956,432.192,467.016z"/>
			<path style="fill:#DDE560;" d="M439.932,465.206l-5.398,1.262c-0.257,0.06-0.515-0.1-0.575-0.357l-0.791-3.381
				c-0.06-0.257,0.1-0.515,0.357-0.575l5.398-1.263c0.257-0.06,0.515,0.1,0.575,0.357l0.791,3.381
				C440.35,464.888,440.19,465.145,439.932,465.206z"/>
		</g>
	</g>
</g>
</svg>
